<svg width="112" height="37" viewBox="0 0 112 37" fill="none" xmlns="http://www.w3.org/2000/svg">
<g clip-path="url(#clip0_22_6327)">
<path d="M79.8947 7.9753C79.8947 8.29863 79.838 8.62901 79.7249 8.96641C79.6258 9.28976 79.4775 9.59202 79.2795 9.87318L64.0899 31.2982H79.4703V36.2537H55.9224V33.7865C55.9224 33.4912 55.9718 33.2031 56.0707 32.9219C56.1698 32.6268 56.3112 32.3595 56.4951 32.1205L71.7271 10.6112H57.0042V5.65566H79.8947V7.9753Z" fill="url(#paint0_linear_22_6327)"/>
<path d="M44.3943 24.4869V36.2537H38.0299V24.4869L26.8499 5.65566H32.4505C33.002 5.65566 33.4405 5.78921 33.7658 6.05633C34.1053 6.30937 34.374 6.63975 34.572 7.04743L39.621 16.6845C39.9604 17.3312 40.2645 17.9357 40.5332 18.4979C40.816 19.0603 41.0635 19.6227 41.2757 20.185C41.4737 19.6227 41.6999 19.0603 41.9545 18.4979C42.2232 17.9216 42.5203 17.3171 42.8456 16.6845L47.8521 7.04743C48.0218 6.71003 48.2765 6.39373 48.6158 6.09849C48.9553 5.80328 49.3938 5.65566 49.9311 5.65566H55.5742L44.3943 24.4869Z" fill="url(#paint1_linear_22_6327)"/>
<path d="M27.7061 20.9442C27.7061 23.1795 27.3242 25.239 26.5604 27.1229C25.8109 28.9927 24.7431 30.6024 23.3571 31.952C21.9852 33.3016 20.3305 34.3559 18.3929 35.115C16.4554 35.8742 14.3056 36.2537 11.9437 36.2537H0.106079V5.65566H11.9437C14.3056 5.65566 16.4554 6.03523 18.3929 6.79439C20.3305 7.55354 21.9852 8.61496 23.3571 9.97861C24.7431 11.3282 25.8109 12.9379 26.5604 14.8077C27.3242 16.6775 27.7061 18.723 27.7061 20.9442ZM21.172 20.9442C21.172 19.3415 20.9598 17.9005 20.5356 16.6212C20.1113 15.3419 19.5032 14.2594 18.7112 13.3737C17.9192 12.488 16.9503 11.8062 15.8048 11.3282C14.6733 10.8502 13.3863 10.6112 11.9437 10.6112H6.51284V31.2982H11.9437C13.3863 31.2982 14.6733 31.0662 15.8048 30.6023C16.9503 30.1244 17.9192 29.4424 18.7112 28.5568C19.5032 27.657 20.1113 26.5675 20.5356 25.2881C20.9598 24.009 21.172 22.5609 21.172 20.9442Z" fill="url(#paint2_linear_22_6327)"/>
<path d="M111.894 8.81194C107.565 7.88928 106.07 4.35434 105.571 2.78817C104.166 7.96751 99.5955 8.81194 99.5955 8.81194C103.609 9.71574 105.056 13.5373 105.582 15.0767C106.564 10.9892 110.332 9.32731 111.894 8.81194Z" fill="url(#paint3_linear_22_6327)"/>
<path d="M111.894 2.75398C110.31 2.4164 109.763 1.12311 109.581 0.55011C109.067 2.44503 107.394 2.75398 107.394 2.75398C108.863 3.08464 109.392 4.48279 109.584 5.04601C109.944 3.55055 111.322 2.94253 111.894 2.75398Z" fill="url(#paint4_linear_22_6327)"/>
<path d="M107.709 16.4761C109.303 15.9106 111.089 16.7387 111.339 18.4026C111.682 20.6789 111.517 23.0151 110.842 25.2426C109.87 28.4485 107.891 31.2608 105.194 33.2675C102.498 35.2741 99.2259 36.3698 95.8576 36.3939C92.4892 36.418 89.2016 35.3692 86.4764 33.4013C83.7513 31.4334 81.7316 28.6496 80.7134 25.458C79.6952 22.2664 79.7319 18.8345 80.8182 15.6651C81.9046 12.4957 83.9834 9.75542 86.7502 7.84565C88.6726 6.51869 90.8569 5.64113 93.1406 5.26108C94.8099 4.98327 96.1542 6.4157 96.1061 8.09752C96.0579 9.77934 94.615 11.0572 92.9927 11.5375C92.0192 11.8257 91.0914 12.2669 90.2463 12.8502C88.5552 14.0176 87.2844 15.6927 86.6204 17.6301C85.9562 19.5675 85.9337 21.6653 86.5562 23.6163C87.1786 25.5673 88.4132 27.2689 90.079 28.4718C91.7449 29.6747 93.7545 30.3159 95.8134 30.3012C97.8725 30.2864 99.8726 29.6167 101.521 28.39C103.169 27.1635 104.379 25.4443 104.973 23.4846C105.27 22.5055 105.405 21.492 105.38 20.4825C105.338 18.8005 106.115 17.0416 107.709 16.4761Z" fill="url(#paint5_linear_22_6327)"/>
</g>
<defs>
<linearGradient id="paint0_linear_22_6327" x1="67.2372" y1="-9.94796" x2="53.2186" y2="52.0524" gradientUnits="userSpaceOnUse">
<stop stop-color="#0F6FFF"/>
<stop offset="1" stop-color="#A026FF"/>
</linearGradient>
<linearGradient id="paint1_linear_22_6327" x1="67.2372" y1="-9.94796" x2="53.2185" y2="52.0524" gradientUnits="userSpaceOnUse">
<stop stop-color="#0F6FFF"/>
<stop offset="1" stop-color="#A026FF"/>
</linearGradient>
<linearGradient id="paint2_linear_22_6327" x1="67.2372" y1="-9.94796" x2="53.2185" y2="52.0524" gradientUnits="userSpaceOnUse">
<stop stop-color="#0F6FFF"/>
<stop offset="1" stop-color="#A026FF"/>
</linearGradient>
<linearGradient id="paint3_linear_22_6327" x1="109.885" y1="1.67065" x2="104.692" y2="15.5224" gradientUnits="userSpaceOnUse">
<stop stop-color="#0F6FFF"/>
<stop offset="1" stop-color="#A026FF"/>
</linearGradient>
<linearGradient id="paint4_linear_22_6327" x1="111.159" y1="0.14125" x2="109.259" y2="5.20906" gradientUnits="userSpaceOnUse">
<stop stop-color="#0F6FFF"/>
<stop offset="1" stop-color="#A026FF"/>
</linearGradient>
<linearGradient id="paint5_linear_22_6327" x1="106.362" y1="2.19514" x2="93.1651" y2="37.5762" gradientUnits="userSpaceOnUse">
<stop stop-color="#0F6FFF"/>
<stop offset="1" stop-color="#A026FF"/>
</linearGradient>
<clipPath id="clip0_22_6327">
<rect width="112" height="36" fill="white" transform="translate(0 0.5)"/>
</clipPath>
</defs>
</svg>
