<svg width="32" height="32" viewBox="0 0 32 32" fill="none" xmlns="http://www.w3.org/2000/svg">
<rect x="0.684937" y="0.811218" width="31.0114" height="31.0114" rx="3" fill="white"/>
<path d="M24.3452 14.7832L17.1495 14.7829C16.8318 14.7829 16.5742 15.0404 16.5742 15.3582V17.6569C16.5742 17.9746 16.8318 18.2321 17.1495 18.2321H21.2017C20.7579 19.3837 19.9298 20.3481 18.8732 20.9608L20.601 23.9519C23.3727 22.3489 25.0113 19.5363 25.0113 16.3878C25.0113 15.9395 24.9783 15.6191 24.9122 15.2582C24.8619 14.984 24.6239 14.7832 24.3452 14.7832Z" fill="#167EE6"/>
<path d="M16.1908 21.686C14.2077 21.686 12.4765 20.6025 11.5467 18.9991L8.55579 20.7231C10.0779 23.3611 12.9292 25.1375 16.1908 25.1375C17.7908 25.1375 19.3005 24.7067 20.6011 23.956V23.9519L18.8732 20.9608C18.0829 21.4192 17.1683 21.686 16.1908 21.686Z" fill="#12B347"/>
<path d="M20.601 23.9559V23.9518L18.8731 20.9608C18.0828 21.4191 17.1683 21.6859 16.1907 21.6859V25.1375C17.7907 25.1375 19.3005 24.7067 20.601 23.9559Z" fill="#0F993E"/>
<path d="M10.8215 16.3169C10.8215 15.3394 11.0883 14.4249 11.5466 13.6346L8.55565 11.9106C7.80076 13.2071 7.37 14.7127 7.37 16.3169C7.37 17.921 7.80076 19.4266 8.55565 20.7231L11.5466 18.9991C11.0883 18.2088 10.8215 17.2943 10.8215 16.3169Z" fill="#FFD500"/>
<path d="M16.1908 10.9478C17.4839 10.9478 18.6717 11.4073 19.5995 12.1717C19.8284 12.3602 20.1611 12.3466 20.3707 12.1369L21.9994 10.5082C22.2373 10.2703 22.2204 9.88095 21.9663 9.6605C20.4118 8.31194 18.3893 7.49628 16.1908 7.49628C12.9292 7.49628 10.0779 9.2727 8.55579 11.9107L11.5467 13.6346C12.4765 12.0313 14.2077 10.9478 16.1908 10.9478Z" fill="#FF4B26"/>
<path d="M19.5994 12.1717C19.8283 12.3602 20.161 12.3466 20.3706 12.1369L21.9994 10.5082C22.2372 10.2703 22.2203 9.88095 21.9662 9.6605C20.4117 8.31191 18.3892 7.49628 16.1907 7.49628V10.9478C17.4838 10.9478 18.6716 11.4073 19.5994 12.1717Z" fill="#D93F21"/>
</svg>
